<svg xmlns="http://www.w3.org/2000/svg" width="360" height="358">
  <path d="M169 2.067c-3.472 1.561-22.391 19.888-82.816 80.228C43.11 125.308 6.73 162.412 5.339 164.75c-7.241 12.168-2.313 28.741 10.543 35.457 6.261 3.271 15.709 3.814 21.9 1.258 2.599-1.072 24.568-22.371 72.978-70.75L180.021 61.5l68.739 69.21c49.155 49.49 70.022 69.853 73.24 71.47 6.919 3.476 16.837 3.226 23.754-.598 5.556-3.071 9.408-7.332 11.797-13.05 2.12-5.073 1.818-15.114-.618-20.532-2.937-6.532-158.2-161.932-165.379-165.525C185.149-.73 175.605-.903 169 2.067m1.885 152.313c-1.988.71-4.913 2.235-6.5 3.389-1.587 1.154-38.054 37.341-81.039 80.415-53.173 53.284-78.829 79.673-80.268 82.563-6.416 12.882-.833 28.836 12.319 35.203 5.686 2.753 15.451 2.747 21.603-.012 3.466-1.555 20.407-17.915 73.743-71.219l69.243-69.2 70.257 70.079c60.701 60.547 70.817 70.237 74.373 71.24 18.14 5.12 34.297-6.384 34.362-24.466.012-3.37-.689-7.87-1.558-10-1.153-2.828-23.199-25.541-81.75-84.226-64.251-64.399-81.163-80.828-85.17-82.74-5.68-2.711-13.723-3.132-19.615-1.026" fill="#89be6c" fill-rule="evenodd"/>
</svg>
