<svg xmlns="http://www.w3.org/2000/svg" width="2084" height="2084" style="shape-rendering:geometricPrecision;text-rendering:geometricPrecision;image-rendering:optimizeQuality;fill-rule:evenodd;clip-rule:evenodd">
  <path style="opacity:.999" fill="#0866ff" d="M1014.5-.5h54c247.8 9.064 465.8 93.23 654 252.5C1905.16 412.288 2020 612.455 2067 852.5c8.48 47.478 13.98 95.144 16.5 143v93c-17.29 287.98-130.96 529.81-341 725.5-163.43 146.52-354.77 234.02-574 262.5v-716c93.67.17 187.33 0 281-.5 19.84-105.04 39.17-210.2 58-315.5.9-.71 1.24-1.71 1-3h-340c-.17-48.668 0-97.334.5-146 1.22-40.208 10.89-78.208 29-114 23.63-38.256 57.46-62.756 101.5-73.5 37.78-9.026 76.12-12.859 115-11.5 35.36.239 70.69 1.239 106 3 1.42.951 3.09 1.284 5 1 .33-96.501 0-192.835-1-289a921.817 921.817 0 0 0-130-20.5c-72.08-7.792-144.08-7.126-216 2-68.25 7.861-132.25 28.527-192 62-65.701 39.533-114.201 94.366-145.5 164.5-20.891 48.015-34.891 98.015-42 150a937.314 937.314 0 0 0-9 123c-.5 49.666-.667 99.332-.5 149h-214v319h214v693c-222.465-57.82-406.965-174.49-553.5-350C86.722 1518.79 7.889 1307.12-.5 1068.5v-54c11.89-285.874 119.557-528.374 323-727.5C516.795 105.745 747.461 9.912 1014.5-.5Z"/>
  <path style="opacity:1" fill="#fefeff" d="M1524.5 411.5v288h-4a2461.751 2461.751 0 0 0-106-3c-38.88-1.359-77.22 2.474-115 11.5-44.04 10.744-77.87 35.244-101.5 73.5-18.11 35.792-27.78 73.792-29 114-.5 48.666-.67 97.332-.5 146 113.17.33 226.17 1.33 339 3-18.83 105.3-38.16 210.46-58 315.5-93.67.5-187.33.67-281 .5v716c-27.09 2.95-54.09 5.29-81 7h-92c-69.471-3.54-138.138-13.54-206-30v-693h-214v-319h214c-.167-49.668 0-99.334.5-149 .3-41.201 3.3-82.201 9-123 7.109-51.985 21.109-101.985 42-150 31.299-70.134 79.799-124.967 145.5-164.5 59.75-33.473 123.75-54.139 192-62 71.92-9.126 143.92-9.792 216-2a921.817 921.817 0 0 1 130 20.5Z"/>
  <path style="opacity:.878" fill="#dbe8ff" d="M1524.5 411.5c1 96.165 1.33 192.499 1 289-1.91.284-3.58-.049-5-1h4v-288Zm-356 630h340c.24 1.29-.1 2.29-1 3-112.83-1.67-225.83-2.67-339-3Z"/>
</svg>
