<svg xmlns="http://www.w3.org/2000/svg" width="294" height="427" style="shape-rendering:geometricPrecision;text-rendering:geometricPrecision;image-rendering:optimizeQuality;fill-rule:evenodd;clip-rule:evenodd">
  <path fill="#daa520" d="M234.5-.5h9c12.662 4.518 18.162 13.518 16.5 27A8110.125 8110.125 0 0 1 196.5 160a2569.166 2569.166 0 0 0 86 42c6.36 4.235 10.027 10.069 11 17.5v3c-.987 6.466-3.987 11.966-9 16.5a43200.49 43200.49 0 0 0-213 181 82.878 82.878 0 0 1-10 6.5h-14c-12.461-5.858-16.961-15.525-13.5-29A16534.967 16534.967 0 0 0 96.5 267a2687.995 2687.995 0 0 0-88-43c-4.434-4.053-7.434-8.886-9-14.5v-7c1.566-5.614 4.566-10.447 9-14.5a43231.636 43231.636 0 0 0 213-181c3.819-3.57 8.152-6.07 13-7.5Z"/>
</svg>