<svg xmlns="http://www.w3.org/2000/svg" width="582" height="403">
  <path fill="#ffffff" fill-rule="evenodd" d="m190.636 123.725-61.86 123.724-43.138-85.974C51.774 93.983 42.07 75.439 40.5 75.217c-1.706-.241-4.806 5.352-21.069 38L.362 151.5 63.546 277c51.252 101.8 63.581 125.56 65.287 125.815 1.864.28 9.049-13.577 63.383-122.25C225.92 213.154 253.783 158 254.135 158c.351 0 28.3 55.013 62.109 122.25 49.979 99.396 61.865 122.309 63.58 122.565 1.877.281 13.15-21.764 102.125-199.714C541.394 84.213 581.726 2.449 581.375 1.536 580.859.191 575.973 0 542.141 0h-38.645l-61.861 123.728-61.862 123.728-42.786-85.435-42.786-85.434 18.383-36.755c10.758-21.51 18.138-37.393 17.792-38.294C329.859.191 324.999 0 291.141 0h-38.645l-61.86 123.725"/>
</svg>