<svg xmlns="http://www.w3.org/2000/svg" width="360" height="205">
  <path d="M170.885 1.38c-1.988.71-4.913 2.235-6.5 3.389-1.587 1.154-38.054 37.341-81.039 80.415-53.173 53.284-78.829 79.673-80.268 82.563-6.416 12.882-.833 28.836 12.319 35.203 5.686 2.753 15.451 2.747 21.603-.012 3.466-1.555 20.407-17.915 73.743-71.219l69.243-69.2 70.257 70.079c60.701 60.547 70.817 70.237 74.373 71.24 18.14 5.12 34.297-6.384 34.362-24.466.012-3.37-.689-7.87-1.558-10-1.153-2.828-23.199-25.541-81.75-84.226-64.251-64.399-81.163-80.828-85.17-82.74-5.68-2.711-13.723-3.132-19.615-1.026" fill="#42a5dc" fill-rule="evenodd"/>
</svg>
