<svg xmlns="http://www.w3.org/2000/svg" width="446" height="512">
  <path d="M208 2.001C182.49 9.299 48.182 59.055 34.935 66.115c-7.281 3.881-15.275 12.184-18.422 19.132-1.308 2.889-3.557 10.878-4.996 17.753-15.498 73.995-15.005 186.74.997 228.175 15.854 41.051 51.646 82.659 107.18 124.594 30.693 23.178 75.629 50.391 90.238 54.648 6.617 1.929 18.8 2.033 25.568.219 13.995-3.75 59.284-30.968 89.555-53.82 28.252-21.329 56.952-47.788 73.15-67.438 22.606-27.426 35.917-53.103 41.22-79.517C442.18 296.14 445 269.084 445 256.372c0-4.54.45-8.532 1-8.872.618-.382 1-9.03 1-22.618 0-12.1-.38-21.765-.845-21.478-.464.287-1.129-6.549-1.476-15.191-1.619-40.286-9.187-90.308-15.705-103.802-3.861-7.994-11.865-15.514-21.208-19.925-18.754-8.855-147.916-56.3-170.246-62.537-8.869-2.477-20.752-2.456-29.52.052m-14.5 66.923c-53.989 18.937-123.344 45.205-124.563 47.178-2.121 3.432-7.221 45.113-8.919 72.898-1.102 18.025-1.384 62.884-.411 65.418.547 1.425 8.703 1.582 82 1.582H223v98c0 53.9.213 98 .474 98 1.173 0 27.477-15.614 39.13-23.228 64.406-42.081 109.916-90.837 118.364-126.805 2.168-9.233 5.007-32.244 5.022-40.717L386 256H223v-98.5c0-54.175-.338-98.477-.75-98.448-.412.028-13.35 4.471-28.75 9.872M.428 226c0 12.375.143 17.438.319 11.25.175-6.187.175-16.312 0-22.5-.176-6.187-.319-1.125-.319 11.25" fill="#42a5dc" fill-rule="evenodd"/>
</svg>
